<?xml version="1.0" standalone="no"?>
<!DOCTYPE svg PUBLIC "-//W3C//DTD SVG 20010904//EN"
 "http://www.w3.org/TR/2001/REC-SVG-20010904/DTD/svg10.dtd">
<svg version="1.0" xmlns="http://www.w3.org/2000/svg"
 width="180.000000pt" height="180.000000pt" viewBox="0 0 180.000000 180.000000"
 preserveAspectRatio="xMidYMid meet">
<metadata>
Created by potrace 1.14, written by Peter Selinger 2001-2017
</metadata>
<g transform="translate(0.000000,180.000000) scale(0.100000,-0.100000)"
fill="#000000" stroke="none">
<path d="M618 1571 c-135 -44 -234 -142 -266 -266 -6 -22 -29 -220 -51 -440
-33 -322 -39 -413 -31 -464 23 -160 125 -243 221 -178 85 57 133 162 155 337
8 63 14 116 14 117 0 2 15 3 34 3 32 0 34 -3 46 -47 24 -98 80 -151 145 -139
42 8 104 74 131 139 18 44 21 47 57 47 l37 0 -7 -43 c-12 -75 -9 -249 6 -301
10 -32 30 -65 57 -94 41 -43 45 -44 89 -39 66 7 112 47 158 138 46 91 48 102
93 539 38 377 39 469 8 535 -26 56 -87 113 -153 144 l-56 26 -315 2 c-284 2
-321 1 -372 -16z m459 -251 c18 -10 41 -37 53 -59 23 -47 25 -131 7 -301 l-12
-105 -36 -3 c-36 -3 -36 -3 -43 44 -12 93 -67 154 -137 154 -44 0 -121 -78
-146 -149 -16 -47 -20 -51 -50 -51 -40 0 -39 -6 -18 185 28 250 74 305 255
305 77 0 101 -4 127 -20z"/>
</g>
</svg>
